<svg width="78" height="78" viewBox="0 0 78 78" fill="none" xmlns="http://www.w3.org/2000/svg">
<path d="M59.6824 50.4904L55.0862 45.8942L59.6824 41.2981C66.0283 34.9521 66.0283 24.6631 59.6824 18.3171C53.3364 11.9711 43.0472 11.9711 36.7013 18.3171L32.1051 22.9133L27.5089 18.3171L32.1051 13.7209C40.9896 4.83648 55.394 4.83648 64.2785 13.7209C73.163 22.6053 73.163 37.0097 64.2785 45.8942L59.6824 50.4904ZM50.4897 59.683L45.8936 64.2791C37.0094 73.1633 22.6048 73.1633 13.7203 64.2791C4.8359 55.3946 4.8359 40.99 13.7203 32.1057L18.3165 27.5095L22.9127 32.1057L18.3165 36.7019C11.9705 43.0479 11.9705 53.3367 18.3165 59.683C24.6625 66.0289 34.9515 66.0289 41.2974 59.683L45.8936 55.0865L50.4897 59.683ZM48.1916 25.2114L52.7881 29.8076L29.807 52.7884L25.2108 48.1923L48.1916 25.2114Z" fill="#5C5C5C"/>
</svg>
